<?xml version="1.0" encoding="UTF-8" standalone="no"?>
<svg
   width="1000mm"
   height="1000mm"
   viewBox="0 0 100 100"
   version="1.1"
   id="svg89"
   inkscape:version="1.2.2 (b0a8486541, 2022-12-01)"
   sodipodi:docname="inka.svg"
   style="width: auto; height: 100%; fill: rgba(0, 0, 0, 0);"
   inkscape:export-filename="../../src-electron/icons/icon.png"
   inkscape:export-xdpi="13.0048"
   inkscape:export-ydpi="13.0048"
   xmlns:inkscape="http://www.inkscape.org/namespaces/inkscape"
   xmlns:sodipodi="http://sodipodi.sourceforge.net/DTD/sodipodi-0.dtd"
   xmlns="http://www.w3.org/2000/svg"
   xmlns:svg="http://www.w3.org/2000/svg">
  <sodipodi:namedview
     id="namedview7"
     pagecolor="#c8c8c8"
     bordercolor="#666666"
     borderopacity="1.0"
     inkscape:pageshadow="2"
     inkscape:pageopacity="0"
     inkscape:pagecheckerboard="0"
     inkscape:document-units="mm"
     showgrid="true"
     inkscape:zoom="0.11313708"
     inkscape:cx="1171.1457"
     inkscape:cy="1308.1476"
     inkscape:window-width="1920"
     inkscape:window-height="1011"
     inkscape:window-x="0"
     inkscape:window-y="0"
     inkscape:window-maximized="1"
     inkscape:current-layer="layer1"
     units="mm"
     width="1000mm"
     inkscape:showpageshadow="2"
     inkscape:deskcolor="#d1d1d1">
    <inkscape:grid
       type="xygrid"
       id="grid378"
       units="mm"
       spacingx="10"
       spacingy="10"
       originx="0"
       originy="0"
       visible="true" />
  </sodipodi:namedview>
  <defs
     id="defs2">
    <inkscape:path-effect
       effect="roughen"
       id="path-effect1980"
       is_visible="true"
       lpeversion="1.2"
       method="segments"
       max_segment_size="100"
       segments="7"
       displace_x="1;1"
       displace_y="1;1"
       global_randomize="1;1"
       handles="retract"
       shift_nodes="true"
       fixed_displacement="false"
       spray_tool_friendly="false" />
    <inkscape:path-effect
       effect="join_type"
       id="path-effect1984"
       is_visible="false"
       lpeversion="1"
       linecap_type="butt"
       line_width="9"
       linejoin_type="extrp_arc"
       miter_limit="100"
       attempt_force_join="true" />
    <inkscape:path-effect
       effect="roughen"
       id="path-effect1988"
       is_visible="false"
       lpeversion="1.2"
       method="size"
       max_segment_size="1"
       segments="2"
       displace_x="0.32;1"
       displace_y="0.32;1"
       global_randomize="1;1"
       handles="along"
       shift_nodes="true"
       fixed_displacement="false"
       spray_tool_friendly="false" />
    <inkscape:path-effect
       effect="roughen"
       id="path-effect1980-3"
       is_visible="true"
       lpeversion="1.2"
       method="segments"
       max_segment_size="100"
       segments="7"
       displace_x="1;1"
       displace_y="1;1"
       global_randomize="1;1"
       handles="retract"
       shift_nodes="true"
       fixed_displacement="false"
       spray_tool_friendly="false" />
    <inkscape:path-effect
       effect="join_type"
       id="path-effect1984-6"
       is_visible="false"
       lpeversion="1"
       linecap_type="butt"
       line_width="9"
       linejoin_type="extrp_arc"
       miter_limit="100"
       attempt_force_join="true" />
    <inkscape:path-effect
       effect="roughen"
       id="path-effect1988-7"
       is_visible="false"
       lpeversion="1.2"
       method="size"
       max_segment_size="1"
       segments="2"
       displace_x="0.32;1"
       displace_y="0.32;1"
       global_randomize="1;1"
       handles="along"
       shift_nodes="true"
       fixed_displacement="false"
       spray_tool_friendly="false" />
    <inkscape:path-effect
       effect="roughen"
       id="path-effect1980-3-5"
       is_visible="true"
       lpeversion="1.2"
       method="segments"
       max_segment_size="100"
       segments="7"
       displace_x="1;1"
       displace_y="1;1"
       global_randomize="1;1"
       handles="retract"
       shift_nodes="true"
       fixed_displacement="false"
       spray_tool_friendly="false" />
    <inkscape:path-effect
       effect="join_type"
       id="path-effect1984-6-3"
       is_visible="false"
       lpeversion="1"
       linecap_type="butt"
       line_width="9"
       linejoin_type="extrp_arc"
       miter_limit="100"
       attempt_force_join="true" />
    <inkscape:path-effect
       effect="roughen"
       id="path-effect1988-7-5"
       is_visible="false"
       lpeversion="1.2"
       method="size"
       max_segment_size="1"
       segments="2"
       displace_x="0.32;1"
       displace_y="0.32;1"
       global_randomize="1;1"
       handles="along"
       shift_nodes="true"
       fixed_displacement="false"
       spray_tool_friendly="false" />
    <inkscape:path-effect
       effect="roughen"
       id="path-effect1980-36"
       is_visible="true"
       lpeversion="1.2"
       method="segments"
       max_segment_size="100"
       segments="7"
       displace_x="1;1"
       displace_y="1;1"
       global_randomize="1;1"
       handles="retract"
       shift_nodes="true"
       fixed_displacement="false"
       spray_tool_friendly="false" />
    <inkscape:path-effect
       effect="join_type"
       id="path-effect1984-7"
       is_visible="false"
       lpeversion="1"
       linecap_type="butt"
       line_width="9"
       linejoin_type="extrp_arc"
       miter_limit="100"
       attempt_force_join="true" />
    <inkscape:path-effect
       effect="roughen"
       id="path-effect1988-5"
       is_visible="false"
       lpeversion="1.2"
       method="size"
       max_segment_size="1"
       segments="2"
       displace_x="0.32;1"
       displace_y="0.32;1"
       global_randomize="1;1"
       handles="along"
       shift_nodes="true"
       fixed_displacement="false"
       spray_tool_friendly="false" />
    <inkscape:path-effect
       effect="roughen"
       id="path-effect1980-36-3"
       is_visible="true"
       lpeversion="1.2"
       method="segments"
       max_segment_size="100"
       segments="7"
       displace_x="1;1"
       displace_y="1;1"
       global_randomize="1;1"
       handles="retract"
       shift_nodes="true"
       fixed_displacement="false"
       spray_tool_friendly="false" />
    <inkscape:path-effect
       effect="join_type"
       id="path-effect1984-7-5"
       is_visible="false"
       lpeversion="1"
       linecap_type="butt"
       line_width="9"
       linejoin_type="extrp_arc"
       miter_limit="100"
       attempt_force_join="true" />
    <inkscape:path-effect
       effect="roughen"
       id="path-effect1988-5-6"
       is_visible="false"
       lpeversion="1.2"
       method="size"
       max_segment_size="1"
       segments="2"
       displace_x="0.32;1"
       displace_y="0.32;1"
       global_randomize="1;1"
       handles="along"
       shift_nodes="true"
       fixed_displacement="false"
       spray_tool_friendly="false" />
  </defs>
  <g
     inkscape:label="Layer 1"
     inkscape:groupmode="layer"
     id="layer1">
    <path
       id="path3357"
       style="font-size:40.8503px;font-family:Anton;stroke-width:2.45421px;fill:#00b900;stroke:none;fill-opacity:1"
       d="M 68.013006 37.354981 C 65.094009 37.355981 62.260997 37.355996 59.428 37.356996 C 58.599001 45.961987 57.793975 54.314002 56.988976 62.665994 C 58.660974 62.665994 60.284023 62.665012 61.907022 62.665012 C 62.014022 61.276013 62.119023 59.929022 62.223023 58.581023 C 63.259022 58.581023 64.265004 58.57999 65.271003 58.57999 C 65.394002 59.968988 65.513014 61.31598 65.632014 62.663978 C 67.260012 62.663978 68.839992 62.662996 70.419991 62.662996 C 69.601991 54.058005 68.807005 45.706972 68.013006 37.354981 z M 56.221012 37.356996 C 54.490014 37.356996 52.810985 37.357978 51.130987 37.357978 C 50.329988 40.804974 49.552006 44.151 48.775007 47.496997 C 48.774007 44.050001 48.77301 40.705008 48.77201 37.359011 C 47.071011 37.359011 45.419024 37.359993 43.768026 37.359993 C 43.770026 45.964985 43.77202 54.316999 43.77402 62.668991 C 45.485019 62.668991 47.145996 62.668009 48.806995 62.668009 C 48.805995 58.502013 48.804997 54.458988 48.803997 50.415992 C 49.743996 54.581988 50.656016 58.625013 51.568015 62.668009 C 53.353013 62.667009 55.084998 62.666994 56.816997 62.665994 C 55.651998 58.001998 54.522003 53.475015 53.391004 48.94802 C 54.353003 45.007024 55.287013 41.181992 56.221012 37.356996 z M 41.52501 37.360975 C 39.863012 37.360975 38.249005 37.362009 36.636006 37.362009 C 36.637006 41.483004 36.637022 45.484012 36.638022 49.484008 C 35.845023 45.363012 35.076019 41.362005 34.306019 37.362009 C 32.536021 37.362009 30.817979 37.36299 29.099981 37.36299 C 29.101981 45.967982 29.103975 54.32103 29.105975 62.673022 C 30.787973 62.672022 32.420013 62.672006 34.053012 62.671006 C 34.052012 58.36901 34.051014 54.192994 34.050014 50.016998 C 34.912014 54.318994 35.748021 58.49501 36.58402 62.671006 C 38.266018 62.671006 39.898025 62.670024 41.530023 62.670024 C 41.528023 54.065033 41.52701 45.712967 41.52501 37.360975 z M 27.086977 37.364024 C 25.424979 37.364024 23.811023 37.365006 22.198025 37.365006 C 22.200025 45.969997 22.200986 54.322012 22.202986 62.674003 C 23.865984 62.674003 25.479025 62.673022 27.093023 62.673022 C 27.091023 54.06803 27.088977 45.716016 27.086977 37.364024 z M 63.542012 41.670014 L 63.772024 41.670014 C 64.149024 46.04601 64.515983 50.292982 64.881982 54.539978 L 62.580986 54.539978 C 62.907986 50.163982 63.225013 45.91701 63.542012 41.670014 z " />
    <path
       id="rect1959"
       style="fill:none;fill-opacity:1;fill-rule:nonzero;stroke:#00b900;stroke-width:5.62981px;stroke-linecap:butt;stroke-dasharray:416.60598755;stroke-dashoffset:0;stroke-opacity:1"
       d="M 12.128 20.725 C 24.19 20.63 36.253 20.536 48.681 20.438 C 59.965 20.928 71.248 21.419 82.874 21.924 C 84.159 34.602 85.444 47.281 86.768 60.343 C 88.145 66.817 89.522 73.29 90.941 79.96 C 84.296 79.413 77.651 78.865 70.804 78.301 C 58.856 79.167 46.909 80.032 34.599 80.924 C 28.009 80.19 21.419 79.457 14.63 78.701 C 14.135 69.924 13.64 61.148 13.13 52.105 C 13.622 44.957 14.115 37.809 14.622 30.444 C 23.465 30.13 32.308 29.817 41.419 29.494 C 51.817 30.194 62.216 30.893 72.929 31.614 C 74.628 43.993 76.326 56.373 78.076 69.127 C 67.598 69.429 57.12 69.732 46.324 70.043 C 38.313 69.741 30.302 69.44 22.048 69.129"
       sodipodi:nodetypes="ccccccccccccccc" />
  </g>
</svg>
