<svg width="1000mm" height="1000mm" viewBox="0 0 100 100" version="1.1" id="svg5" inkscape:version="1.3.1 (5ab75fa947, 2023-11-03)" sodipodi:docname="temp.svg" style="width: auto; height: 100%; fill: rgba(0, 0, 0, 0);" xmlns:inkscape="http://www.inkscape.org/namespaces/inkscape" xmlns:sodipodi="http://sodipodi.sourceforge.net/DTD/sodipodi-0.dtd" xmlns="http://www.w3.org/2000/svg" xmlns:svg="http://www.w3.org/2000/svg">
  <sodipodi:namedview id="namedview7" pagecolor="#c8c8c8" bordercolor="#666666" borderopacity="1.0" inkscape:pageshadow="2" inkscape:pageopacity="0" inkscape:pagecheckerboard="0" inkscape:document-units="mm" showgrid="true" inkscape:zoom="0.11313708" inkscape:cx="2196.4505" inkscape:cy="1308.1476" inkscape:window-width="1920" inkscape:window-height="1011" inkscape:window-x="0" inkscape:window-y="32" inkscape:window-maximized="1" inkscape:current-layer="layer1" units="mm" width="1000mm" inkscape:showpageshadow="2" inkscape:deskcolor="#d1d1d1">
    <inkscape:grid type="xygrid" id="grid378" units="mm" spacingx="10" spacingy="10" originx="0" originy="0" visible="true"></inkscape:grid>
  </sodipodi:namedview>
  <defs id="defs2">
    <inkscape:path-effect effect="roughen" id="path-effect1980" is_visible="true" lpeversion="1.2" method="segments" max_segment_size="100" segments="7" displace_x="1;1" displace_y="1;1" global_randomize="1;1" handles="retract" shift_nodes="true" fixed_displacement="false" spray_tool_friendly="false"></inkscape:path-effect>
    <inkscape:path-effect effect="join_type" id="path-effect1984" is_visible="false" lpeversion="1" linecap_type="butt" line_width="9" linejoin_type="extrp_arc" miter_limit="100" attempt_force_join="true"></inkscape:path-effect>
    <inkscape:path-effect effect="roughen" id="path-effect1988" is_visible="false" lpeversion="1.2" method="size" max_segment_size="1" segments="2" displace_x="0.32;1" displace_y="0.32;1" global_randomize="1;1" handles="along" shift_nodes="true" fixed_displacement="false" spray_tool_friendly="false"></inkscape:path-effect>
    <inkscape:path-effect effect="roughen" id="path-effect1980-3" is_visible="true" lpeversion="1.2" method="segments" max_segment_size="100" segments="7" displace_x="1;1" displace_y="1;1" global_randomize="1;1" handles="retract" shift_nodes="true" fixed_displacement="false" spray_tool_friendly="false"></inkscape:path-effect>
    <inkscape:path-effect effect="join_type" id="path-effect1984-6" is_visible="false" lpeversion="1" linecap_type="butt" line_width="9" linejoin_type="extrp_arc" miter_limit="100" attempt_force_join="true"></inkscape:path-effect>
    <inkscape:path-effect effect="roughen" id="path-effect1988-7" is_visible="false" lpeversion="1.2" method="size" max_segment_size="1" segments="2" displace_x="0.32;1" displace_y="0.32;1" global_randomize="1;1" handles="along" shift_nodes="true" fixed_displacement="false" spray_tool_friendly="false"></inkscape:path-effect>
    <inkscape:path-effect effect="roughen" id="path-effect1980-3-5" is_visible="true" lpeversion="1.2" method="segments" max_segment_size="100" segments="7" displace_x="1;1" displace_y="1;1" global_randomize="1;1" handles="retract" shift_nodes="true" fixed_displacement="false" spray_tool_friendly="false"></inkscape:path-effect>
    <inkscape:path-effect effect="join_type" id="path-effect1984-6-3" is_visible="false" lpeversion="1" linecap_type="butt" line_width="9" linejoin_type="extrp_arc" miter_limit="100" attempt_force_join="true"></inkscape:path-effect>
    <inkscape:path-effect effect="roughen" id="path-effect1988-7-5" is_visible="false" lpeversion="1.2" method="size" max_segment_size="1" segments="2" displace_x="0.32;1" displace_y="0.32;1" global_randomize="1;1" handles="along" shift_nodes="true" fixed_displacement="false" spray_tool_friendly="false"></inkscape:path-effect>
    <inkscape:path-effect effect="roughen" id="path-effect1980-36" is_visible="true" lpeversion="1.2" method="segments" max_segment_size="100" segments="7" displace_x="1;1" displace_y="1;1" global_randomize="1;1" handles="retract" shift_nodes="true" fixed_displacement="false" spray_tool_friendly="false"></inkscape:path-effect>
    <inkscape:path-effect effect="join_type" id="path-effect1984-7" is_visible="false" lpeversion="1" linecap_type="butt" line_width="9" linejoin_type="extrp_arc" miter_limit="100" attempt_force_join="true"></inkscape:path-effect>
    <inkscape:path-effect effect="roughen" id="path-effect1988-5" is_visible="false" lpeversion="1.2" method="size" max_segment_size="1" segments="2" displace_x="0.32;1" displace_y="0.32;1" global_randomize="1;1" handles="along" shift_nodes="true" fixed_displacement="false" spray_tool_friendly="false"></inkscape:path-effect>
    <inkscape:path-effect effect="roughen" id="path-effect1980-36-3" is_visible="true" lpeversion="1.2" method="segments" max_segment_size="100" segments="7" displace_x="1;1" displace_y="1;1" global_randomize="1;1" handles="retract" shift_nodes="true" fixed_displacement="false" spray_tool_friendly="false"></inkscape:path-effect>
    <inkscape:path-effect effect="join_type" id="path-effect1984-7-5" is_visible="false" lpeversion="1" linecap_type="butt" line_width="9" linejoin_type="extrp_arc" miter_limit="100" attempt_force_join="true"></inkscape:path-effect>
    <inkscape:path-effect effect="roughen" id="path-effect1988-5-6" is_visible="false" lpeversion="1.2" method="size" max_segment_size="1" segments="2" displace_x="0.32;1" displace_y="0.32;1" global_randomize="1;1" handles="along" shift_nodes="true" fixed_displacement="false" spray_tool_friendly="false"></inkscape:path-effect>
  </defs>
  <g inkscape:label="Layer 1" inkscape:groupmode="layer" id="layer1">
    <path d="M 22.203 62.674 C 22.201 54.322 22.2 45.97 22.198 37.365 C 23.811 37.365 25.425 37.364 27.087 37.364 C 27.089 45.716 27.091 54.068 27.093 62.673 C 25.479 62.673 23.866 62.674 22.203 62.674 C 22.203 62.674 22.203 62.674 22.203 62.674 Z" id="path3357" style="font-size: 40.8503px; font-family: Anton; stroke-width: 2.45421px;"></path>
    <path d="M 29.106 62.673 C 29.104 54.321 29.102 45.968 29.1 37.363 C 30.818 37.363 32.536 37.362 34.306 37.362 C 35.076 41.362 35.845 45.363 36.638 49.484 C 36.637 45.484 36.637 41.483 36.636 37.362 C 38.249 37.362 39.863 37.361 41.525 37.361 C 41.527 45.713 41.528 54.065 41.53 62.67 C 39.898 62.67 38.266 62.671 36.584 62.671 C 35.748 58.495 34.912 54.319 34.05 50.017 C 34.051 54.193 34.052 58.369 34.053 62.671 C 32.42 62.672 30.788 62.672 29.106 62.673 C 29.106 62.673 29.106 62.673 29.106 62.673 Z" id="path3359" style="font-size: 40.8503px; font-family: Anton; stroke-width: 2.45421px;"></path>
    <path d="M 43.774 62.669 C 43.772 54.317 43.77 45.965 43.768 37.36 C 45.419 37.36 47.071 37.359 48.772 37.359 C 48.773 40.705 48.774 44.05 48.775 47.497 C 49.552 44.151 50.33 40.805 51.131 37.358 C 52.811 37.358 54.49 37.357 56.221 37.357 C 55.287 41.182 54.353 45.007 53.391 48.948 C 54.522 53.475 55.652 58.002 56.817 62.666 C 55.085 62.667 53.353 62.667 51.568 62.668 C 50.656 58.625 49.744 54.582 48.804 50.416 C 48.805 54.459 48.806 58.502 48.807 62.668 C 47.146 62.668 45.485 62.669 43.774 62.669 C 43.774 62.669 43.774 62.669 43.774 62.669 Z" id="path3361" style="font-size: 40.8503px; font-family: Anton; stroke-width: 2.45421px;"></path>
    <path d="M 56.989 62.666 C 57.794 54.314 58.599 45.962 59.428 37.357 C 62.261 37.356 65.094 37.356 68.013 37.355 C 68.807 45.707 69.602 54.058 70.42 62.663 C 68.84 62.663 67.26 62.664 65.632 62.664 C 65.513 61.316 65.394 59.969 65.271 58.58 C 64.265 58.58 63.259 58.581 62.223 58.581 C 62.119 59.929 62.014 61.276 61.907 62.665 C 60.284 62.665 58.661 62.666 56.989 62.666 C 56.989 62.666 56.989 62.666 56.989 62.666 Z M 62.581 54.54 C 63.34 54.54 64.1 54.54 64.882 54.54 C 64.516 50.293 64.149 46.046 63.772 41.67 C 63.696 41.67 63.62 41.67 63.542 41.67 C 63.225 45.917 62.908 50.164 62.581 54.54 C 62.581 54.54 62.581 54.54 62.581 54.54 Z" id="path3363" style="font-size: 40.8503px; font-family: Anton; stroke-width: 2.45421px;"></path>
    <path id="rect1959" style="fill: none; fill-opacity: 1; fill-rule: nonzero; stroke: rgb(0, 0, 0); stroke-width: 5.62981px; stroke-linecap: butt; stroke-dasharray: 416.606px; stroke-dashoffset: 416.606px;" d="M 12.128 20.725 C 24.19 20.63 36.253 20.536 48.681 20.438 C 59.965 20.928 71.248 21.419 82.874 21.924 C 84.159 34.602 85.444 47.281 86.768 60.343 C 88.145 66.817 89.522 73.29 90.941 79.96 C 84.296 79.413 77.651 78.865 70.804 78.301 C 58.856 79.167 46.909 80.032 34.599 80.924 C 28.009 80.19 21.419 79.457 14.63 78.701 C 14.135 69.924 13.64 61.148 13.13 52.105 C 13.622 44.957 14.115 37.809 14.622 30.444 C 23.465 30.13 32.308 29.817 41.419 29.494 C 51.817 30.194 62.216 30.893 72.929 31.614 C 74.628 43.993 76.326 56.373 78.076 69.127 C 67.598 69.429 57.12 69.732 46.324 70.043 C 38.313 69.741 30.302 69.44 22.048 69.129" sodipodi:nodetypes="ccccccccccccccc"></path>
    <path d="M 22.624356,62.590253 22.618843,37.968429 27.375327,37.967363 27.380847,62.589187 Z" id="path3357-3" style="font-size:40.8503px;font-family:Anton;-inkscape-font-specification:'Anton, Normal';fill:#000000;stroke-width:2.38757"></path>
    <path d="M 29.339401,62.588745 29.333881,37.966921 34.398144,37.965784 36.667114,49.758572 36.664477,37.965279 41.420961,37.964213 41.426481,62.586038 36.614028,62.587118 34.149091,50.276752 34.151847,62.587665 Z" id="path3359-6" style="font-size:40.8503px;font-family:Anton;-inkscape-font-specification:'Anton, Normal';fill:#000000;stroke-width:2.38757"></path>
    <path d="M 43.608868,62.585547 43.603355,37.963722 48.471763,37.962635 48.473972,47.825351 50.766066,37.962123 55.718412,37.961015 52.964969,49.237305 56.297506,62.582707 51.191273,62.583849 48.502587,50.665252 48.505252,62.584452 Z" id="path3361-7" style="font-size:40.8503px;font-family:Anton;-inkscape-font-specification:'Anton, Normal';fill:#000000;stroke-width:2.38757"></path>
    <path d="M 56.465377,62.582672 58.838106,37.960313 67.189941,37.958441 69.531734,62.57974 64.873174,62.580785 64.522541,58.607799 61.556733,58.608466 61.249845,62.581599 Z M 61.905591,54.677289 64.143939,54.676784 63.063933,42.156269 62.840093,42.156318 Z" id="path3363-5" style="font-size:40.8503px;font-family:Anton;-inkscape-font-specification:'Anton, Normal';fill:#000000;stroke-width:2.38757"></path>
  </g>
<svg width="1000mm" height="1000mm" viewBox="0 0 100 100" version="1.1" id="svg5" inkscape:version="1.3.1 (5ab75fa947, 2023-11-03)" sodipodi:docname="temp.svg" style="width: auto; height: 100%; fill: rgba(0, 0, 0, 0);" xmlns:inkscape="http://www.inkscape.org/namespaces/inkscape" xmlns:sodipodi="http://sodipodi.sourceforge.net/DTD/sodipodi-0.dtd" xmlns="http://www.w3.org/2000/svg" xmlns:svg="http://www.w3.org/2000/svg">
  <sodipodi:namedview id="namedview7" pagecolor="#c8c8c8" bordercolor="#666666" borderopacity="1.0" inkscape:pageshadow="2" inkscape:pageopacity="0" inkscape:pagecheckerboard="0" inkscape:document-units="mm" showgrid="true" inkscape:zoom="0.11313708" inkscape:cx="2196.4505" inkscape:cy="1308.1476" inkscape:window-width="1920" inkscape:window-height="1011" inkscape:window-x="0" inkscape:window-y="32" inkscape:window-maximized="1" inkscape:current-layer="layer1" units="mm" width="1000mm" inkscape:showpageshadow="2" inkscape:deskcolor="#d1d1d1">
    <inkscape:grid type="xygrid" id="grid378" units="mm" spacingx="10" spacingy="10" originx="0" originy="0" visible="true"></inkscape:grid>
  </sodipodi:namedview>
  <defs id="defs2">
    <inkscape:path-effect effect="roughen" id="path-effect1980" is_visible="true" lpeversion="1.2" method="segments" max_segment_size="100" segments="7" displace_x="1;1" displace_y="1;1" global_randomize="1;1" handles="retract" shift_nodes="true" fixed_displacement="false" spray_tool_friendly="false"></inkscape:path-effect>
    <inkscape:path-effect effect="join_type" id="path-effect1984" is_visible="false" lpeversion="1" linecap_type="butt" line_width="9" linejoin_type="extrp_arc" miter_limit="100" attempt_force_join="true"></inkscape:path-effect>
    <inkscape:path-effect effect="roughen" id="path-effect1988" is_visible="false" lpeversion="1.2" method="size" max_segment_size="1" segments="2" displace_x="0.32;1" displace_y="0.32;1" global_randomize="1;1" handles="along" shift_nodes="true" fixed_displacement="false" spray_tool_friendly="false"></inkscape:path-effect>
    <inkscape:path-effect effect="roughen" id="path-effect1980-3" is_visible="true" lpeversion="1.2" method="segments" max_segment_size="100" segments="7" displace_x="1;1" displace_y="1;1" global_randomize="1;1" handles="retract" shift_nodes="true" fixed_displacement="false" spray_tool_friendly="false"></inkscape:path-effect>
    <inkscape:path-effect effect="join_type" id="path-effect1984-6" is_visible="false" lpeversion="1" linecap_type="butt" line_width="9" linejoin_type="extrp_arc" miter_limit="100" attempt_force_join="true"></inkscape:path-effect>
    <inkscape:path-effect effect="roughen" id="path-effect1988-7" is_visible="false" lpeversion="1.2" method="size" max_segment_size="1" segments="2" displace_x="0.32;1" displace_y="0.32;1" global_randomize="1;1" handles="along" shift_nodes="true" fixed_displacement="false" spray_tool_friendly="false"></inkscape:path-effect>
    <inkscape:path-effect effect="roughen" id="path-effect1980-3-5" is_visible="true" lpeversion="1.2" method="segments" max_segment_size="100" segments="7" displace_x="1;1" displace_y="1;1" global_randomize="1;1" handles="retract" shift_nodes="true" fixed_displacement="false" spray_tool_friendly="false"></inkscape:path-effect>
    <inkscape:path-effect effect="join_type" id="path-effect1984-6-3" is_visible="false" lpeversion="1" linecap_type="butt" line_width="9" linejoin_type="extrp_arc" miter_limit="100" attempt_force_join="true"></inkscape:path-effect>
    <inkscape:path-effect effect="roughen" id="path-effect1988-7-5" is_visible="false" lpeversion="1.2" method="size" max_segment_size="1" segments="2" displace_x="0.32;1" displace_y="0.32;1" global_randomize="1;1" handles="along" shift_nodes="true" fixed_displacement="false" spray_tool_friendly="false"></inkscape:path-effect>
    <inkscape:path-effect effect="roughen" id="path-effect1980-36" is_visible="true" lpeversion="1.2" method="segments" max_segment_size="100" segments="7" displace_x="1;1" displace_y="1;1" global_randomize="1;1" handles="retract" shift_nodes="true" fixed_displacement="false" spray_tool_friendly="false"></inkscape:path-effect>
    <inkscape:path-effect effect="join_type" id="path-effect1984-7" is_visible="false" lpeversion="1" linecap_type="butt" line_width="9" linejoin_type="extrp_arc" miter_limit="100" attempt_force_join="true"></inkscape:path-effect>
    <inkscape:path-effect effect="roughen" id="path-effect1988-5" is_visible="false" lpeversion="1.2" method="size" max_segment_size="1" segments="2" displace_x="0.32;1" displace_y="0.32;1" global_randomize="1;1" handles="along" shift_nodes="true" fixed_displacement="false" spray_tool_friendly="false"></inkscape:path-effect>
    <inkscape:path-effect effect="roughen" id="path-effect1980-36-3" is_visible="true" lpeversion="1.2" method="segments" max_segment_size="100" segments="7" displace_x="1;1" displace_y="1;1" global_randomize="1;1" handles="retract" shift_nodes="true" fixed_displacement="false" spray_tool_friendly="false"></inkscape:path-effect>
    <inkscape:path-effect effect="join_type" id="path-effect1984-7-5" is_visible="false" lpeversion="1" linecap_type="butt" line_width="9" linejoin_type="extrp_arc" miter_limit="100" attempt_force_join="true"></inkscape:path-effect>
    <inkscape:path-effect effect="roughen" id="path-effect1988-5-6" is_visible="false" lpeversion="1.2" method="size" max_segment_size="1" segments="2" displace_x="0.32;1" displace_y="0.32;1" global_randomize="1;1" handles="along" shift_nodes="true" fixed_displacement="false" spray_tool_friendly="false"></inkscape:path-effect>
  </defs>
  <g inkscape:label="Layer 1" inkscape:groupmode="layer" id="layer1">
    <path d="M 22.203 62.674 C 22.201 54.322 22.2 45.97 22.198 37.365 C 23.811 37.365 25.425 37.364 27.087 37.364 C 27.089 45.716 27.091 54.068 27.093 62.673 C 25.479 62.673 23.866 62.674 22.203 62.674 C 22.203 62.674 22.203 62.674 22.203 62.674 Z" id="path3357" style="font-size: 40.8503px; font-family: Anton; stroke-width: 2.45421px;"></path>
    <path d="M 29.106 62.673 C 29.104 54.321 29.102 45.968 29.1 37.363 C 30.818 37.363 32.536 37.362 34.306 37.362 C 35.076 41.362 35.845 45.363 36.638 49.484 C 36.637 45.484 36.637 41.483 36.636 37.362 C 38.249 37.362 39.863 37.361 41.525 37.361 C 41.527 45.713 41.528 54.065 41.53 62.67 C 39.898 62.67 38.266 62.671 36.584 62.671 C 35.748 58.495 34.912 54.319 34.05 50.017 C 34.051 54.193 34.052 58.369 34.053 62.671 C 32.42 62.672 30.788 62.672 29.106 62.673 C 29.106 62.673 29.106 62.673 29.106 62.673 Z" id="path3359" style="font-size: 40.8503px; font-family: Anton; stroke-width: 2.45421px;"></path>
    <path d="M 43.774 62.669 C 43.772 54.317 43.77 45.965 43.768 37.36 C 45.419 37.36 47.071 37.359 48.772 37.359 C 48.773 40.705 48.774 44.05 48.775 47.497 C 49.552 44.151 50.33 40.805 51.131 37.358 C 52.811 37.358 54.49 37.357 56.221 37.357 C 55.287 41.182 54.353 45.007 53.391 48.948 C 54.522 53.475 55.652 58.002 56.817 62.666 C 55.085 62.667 53.353 62.667 51.568 62.668 C 50.656 58.625 49.744 54.582 48.804 50.416 C 48.805 54.459 48.806 58.502 48.807 62.668 C 47.146 62.668 45.485 62.669 43.774 62.669 C 43.774 62.669 43.774 62.669 43.774 62.669 Z" id="path3361" style="font-size: 40.8503px; font-family: Anton; stroke-width: 2.45421px;"></path>
    <path d="M 56.989 62.666 C 57.794 54.314 58.599 45.962 59.428 37.357 C 62.261 37.356 65.094 37.356 68.013 37.355 C 68.807 45.707 69.602 54.058 70.42 62.663 C 68.84 62.663 67.26 62.664 65.632 62.664 C 65.513 61.316 65.394 59.969 65.271 58.58 C 64.265 58.58 63.259 58.581 62.223 58.581 C 62.119 59.929 62.014 61.276 61.907 62.665 C 60.284 62.665 58.661 62.666 56.989 62.666 C 56.989 62.666 56.989 62.666 56.989 62.666 Z M 62.581 54.54 C 63.34 54.54 64.1 54.54 64.882 54.54 C 64.516 50.293 64.149 46.046 63.772 41.67 C 63.696 41.67 63.62 41.67 63.542 41.67 C 63.225 45.917 62.908 50.164 62.581 54.54 C 62.581 54.54 62.581 54.54 62.581 54.54 Z" id="path3363" style="font-size: 40.8503px; font-family: Anton; stroke-width: 2.45421px;"></path>
    <path id="rect1959" style="fill: none; fill-opacity: 1; fill-rule: nonzero; stroke: rgb(0, 0, 0); stroke-width: 5.62981px; stroke-linecap: butt; stroke-dasharray: 416.606px; stroke-dashoffset: 416.606px;" d="M 12.128 20.725 C 24.19 20.63 36.253 20.536 48.681 20.438 C 59.965 20.928 71.248 21.419 82.874 21.924 C 84.159 34.602 85.444 47.281 86.768 60.343 C 88.145 66.817 89.522 73.29 90.941 79.96 C 84.296 79.413 77.651 78.865 70.804 78.301 C 58.856 79.167 46.909 80.032 34.599 80.924 C 28.009 80.19 21.419 79.457 14.63 78.701 C 14.135 69.924 13.64 61.148 13.13 52.105 C 13.622 44.957 14.115 37.809 14.622 30.444 C 23.465 30.13 32.308 29.817 41.419 29.494 C 51.817 30.194 62.216 30.893 72.929 31.614 C 74.628 43.993 76.326 56.373 78.076 69.127 C 67.598 69.429 57.12 69.732 46.324 70.043 C 38.313 69.741 30.302 69.44 22.048 69.129" sodipodi:nodetypes="ccccccccccccccc"></path>
    <path d="M 22.624356,62.590253 22.618843,37.968429 27.375327,37.967363 27.380847,62.589187 Z" id="path3357-3" style="font-size:40.8503px;font-family:Anton;-inkscape-font-specification:'Anton, Normal';fill:#000000;stroke-width:2.38757"></path>
    <path d="M 29.339401,62.588745 29.333881,37.966921 34.398144,37.965784 36.667114,49.758572 36.664477,37.965279 41.420961,37.964213 41.426481,62.586038 36.614028,62.587118 34.149091,50.276752 34.151847,62.587665 Z" id="path3359-6" style="font-size:40.8503px;font-family:Anton;-inkscape-font-specification:'Anton, Normal';fill:#000000;stroke-width:2.38757"></path>
    <path d="M 43.608868,62.585547 43.603355,37.963722 48.471763,37.962635 48.473972,47.825351 50.766066,37.962123 55.718412,37.961015 52.964969,49.237305 56.297506,62.582707 51.191273,62.583849 48.502587,50.665252 48.505252,62.584452 Z" id="path3361-7" style="font-size:40.8503px;font-family:Anton;-inkscape-font-specification:'Anton, Normal';fill:#000000;stroke-width:2.38757"></path>
    <path d="M 56.465377,62.582672 58.838106,37.960313 67.189941,37.958441 69.531734,62.57974 64.873174,62.580785 64.522541,58.607799 61.556733,58.608466 61.249845,62.581599 Z M 61.905591,54.677289 64.143939,54.676784 63.063933,42.156269 62.840093,42.156318 Z" id="path3363-5" style="font-size:40.8503px;font-family:Anton;-inkscape-font-specification:'Anton, Normal';fill:#000000;stroke-width:2.38757"></path>
  </g>

<style>  
    #path3357 { 
        animation-name: myanimpath3357;
        animation-duration: 3s; 
        animation-iteration-count: infinite;
        animation-timing-function: linear;
    }
      
    @keyframes myanimpath3357 { 
         
    }
     
    #path3359 { 
        animation-name: myanimpath3359;
        animation-duration: 3s; 
        animation-iteration-count: infinite;
        animation-timing-function: linear;
    }
      
    @keyframes myanimpath3359 { 
         
    }
     
    #path3361 { 
        animation-name: myanimpath3361;
        animation-duration: 3s; 
        animation-iteration-count: infinite;
        animation-timing-function: linear;
    }
      
    @keyframes myanimpath3361 { 
         
    }
     
    #path3363 { 
        animation-name: myanimpath3363;
        animation-duration: 3s; 
        animation-iteration-count: infinite;
        animation-timing-function: linear;
    }
      
    @keyframes myanimpath3363 { 
         
    }
     
    #rect1959 { 
        animation-name: myanimrect1959;
        animation-duration: 3s; 
        animation-iteration-count: infinite;
        animation-timing-function: linear;
    }
      
    @keyframes myanimrect1959 { 
        0% {
            stroke-dasharray: 416.606;
            stroke-dashoffset: 416.606;
        }
        100% {
            stroke-dasharray: 416.606;
            stroke-dashoffset: 0.0562981;
        }
         
    }
     
    #path3357-3 { 
        animation-name: myanimpath3357-3;
        animation-duration: 3s; 
        animation-iteration-count: infinite;
        animation-timing-function: linear;
    }
      
    @keyframes myanimpath3357-3 { 
         
    }
     
    #path3359-6 { 
        animation-name: myanimpath3359-6;
        animation-duration: 3s; 
        animation-iteration-count: infinite;
        animation-timing-function: linear;
    }
      
    @keyframes myanimpath3359-6 { 
         
    }
     
    #path3361-7 { 
        animation-name: myanimpath3361-7;
        animation-duration: 3s; 
        animation-iteration-count: infinite;
        animation-timing-function: linear;
    }
      
    @keyframes myanimpath3361-7 { 
         
    }
     
    #path3363-5 { 
        animation-name: myanimpath3363-5;
        animation-duration: 3s; 
        animation-iteration-count: infinite;
        animation-timing-function: linear;
    }
      
    @keyframes myanimpath3363-5 { 
         
    }
     
    #layer1 { 
        animation-name: myanimlayer1;
        animation-duration: 3s; 
        animation-iteration-count: infinite;
        animation-timing-function: linear;
    }
      
    @keyframes myanimlayer1 { 
         
    }
     
    #svg5 { 
        animation-name: myanimsvg5;
        animation-duration: 3s; 
        animation-iteration-count: infinite;
        animation-timing-function: linear;
    }
      
    @keyframes myanimsvg5 { 
        0% {
            fill: rgb(0,0,0,0);
        }
        100% {
            fill: rgb(0,0,0,0);
        }
         
    }
    
   
    #svg5 *{
        transform-box: fill-box;
        transform-origin: center;
    }
</style></svg></svg>